<svg xmlns="http://www.w3.org/2000/svg" width="37" height="37" viewBox="0 0 37 37" fill="none">
  <path d="M7.71094 24.6693L15.4193 20.0443M21.5859 16.9609L29.2943 12.3359M18.5026 7.71094V15.4193M18.5026 21.5859V29.2943M7.71094 12.3359L15.4193 16.9609M21.5859 20.0443L29.2943 24.6693M31.6068 13.8776V22.3568M20.8151 31.6068L29.2943 26.9818M6.9401 26.9818L16.1901 31.6068M5.39844 23.1276V13.8776M6.9401 10.0234L16.1901 5.39844M30.0651 10.0234L20.8151 5.39844" stroke="#6EF667" stroke-width="2.3125" stroke-linecap="round" stroke-linejoin="round"/>
  <path d="M18.5 7.71094C19.7772 7.71094 20.8125 6.6756 20.8125 5.39844C20.8125 4.12128 19.7772 3.08594 18.5 3.08594C17.2228 3.08594 16.1875 4.12128 16.1875 5.39844C16.1875 6.6756 17.2228 7.71094 18.5 7.71094Z" stroke="#6EF667" stroke-width="2.3125" stroke-linecap="round" stroke-linejoin="round"/>
  <path d="M18.5 33.918C19.7772 33.918 20.8125 32.8826 20.8125 31.6055C20.8125 30.3283 19.7772 29.293 18.5 29.293C17.2228 29.293 16.1875 30.3283 16.1875 31.6055C16.1875 32.8826 17.2228 33.918 18.5 33.918Z" stroke="#6EF667" stroke-width="2.3125" stroke-linecap="round" stroke-linejoin="round"/>
  <path d="M5.39844 13.8789C6.6756 13.8789 7.71094 12.8436 7.71094 11.5664C7.71094 10.2892 6.6756 9.25391 5.39844 9.25391C4.12128 9.25391 3.08594 10.2892 3.08594 11.5664C3.08594 12.8436 4.12128 13.8789 5.39844 13.8789Z" stroke="#6EF667" stroke-width="2.3125" stroke-linecap="round" stroke-linejoin="round"/>
  <path d="M31.6094 13.8789C32.8865 13.8789 33.9219 12.8436 33.9219 11.5664C33.9219 10.2892 32.8865 9.25391 31.6094 9.25391C30.3322 9.25391 29.2969 10.2892 29.2969 11.5664C29.2969 12.8436 30.3322 13.8789 31.6094 13.8789Z" stroke="#6EF667" stroke-width="2.3125" stroke-linecap="round" stroke-linejoin="round"/>
  <path d="M31.6094 27.7539C32.8865 27.7539 33.9219 26.7186 33.9219 25.4414C33.9219 24.1642 32.8865 23.1289 31.6094 23.1289C30.3322 23.1289 29.2969 24.1642 29.2969 25.4414C29.2969 26.7186 30.3322 27.7539 31.6094 27.7539Z" stroke="#6EF667" stroke-width="2.3125" stroke-linecap="round" stroke-linejoin="round"/>
  <path d="M5.39844 27.7539C6.6756 27.7539 7.71094 26.7186 7.71094 25.4414C7.71094 24.1642 6.6756 23.1289 5.39844 23.1289C4.12128 23.1289 3.08594 24.1642 3.08594 25.4414C3.08594 26.7186 4.12128 27.7539 5.39844 27.7539Z" stroke="#6EF667" stroke-width="2.3125" stroke-linecap="round" stroke-linejoin="round"/>
  <path d="M18.5052 15.0352L21.5885 16.7695V20.2383L18.5052 21.9727L15.4219 20.2383V16.7695L18.5052 15.0352Z" stroke="#6EF667" stroke-width="2.3125" stroke-linecap="round" stroke-linejoin="round"/>
</svg>