<svg xmlns="http://www.w3.org/2000/svg" width="37" height="37" viewBox="0 0 37 37" fill="none">
  <g clip-path="url(#clip0_1497_1793)">
    <path fill-rule="evenodd" clip-rule="evenodd" d="M15.6094 0C9.23045 0 4.04688 5.18357 4.04688 11.5625C4.04687 11.8818 4.30571 12.1406 4.625 12.1406H8.57364C9.10373 12.1405 9.35418 11.4865 8.95981 11.1323C8.59323 10.8037 8.38353 10.3351 8.38281 9.8428C8.38339 8.87862 9.15285 8.10956 10.1172 8.10956C11.0819 8.10956 11.8516 8.87922 11.8516 9.84393C11.8505 10.3358 11.6409 10.8039 11.2746 11.1323C10.8802 11.4865 11.1306 12.1405 11.6607 12.1406H15.6094C15.9287 12.1406 16.1875 11.8818 16.1875 11.5625V8.71704C16.5442 8.87103 16.9299 8.96035 17.3268 8.96094H17.328C18.9176 8.96094 20.2186 7.65991 20.2186 6.07031C20.2186 4.48071 18.9176 3.17969 17.328 3.17969C16.9307 3.17975 16.5447 3.26749 16.1875 3.42133V0.578125C16.187 0.493586 16.1583 0.0439548 15.6094 0ZM15.0312 1.17319V4.52338C15.0314 5.05347 15.6854 5.30392 16.0396 4.90955C16.3686 4.54391 16.836 4.33601 17.3279 4.33594C18.2927 4.33594 19.0623 5.1056 19.0623 6.07031C19.0623 7.03465 18.2933 7.80408 17.3291 7.80469C16.8368 7.80411 16.3682 7.59427 16.0396 7.22769C15.6854 6.83332 15.0314 7.08377 15.0312 7.61386V10.9844H12.7639C12.9182 10.6274 13.0072 10.2423 13.0078 9.84506V9.84391C13.0078 8.25431 11.7068 6.95328 10.1172 6.95328C8.52759 6.95328 7.22656 8.25431 7.22656 9.84391C7.22656 10.1208 7.2726 10.5266 7.47046 10.9844H5.22006C5.50889 5.69147 9.73834 1.46202 15.0312 1.17319ZM21.3906 6.13693C21.0843 6.14577 20.8207 6.40527 20.8125 6.71506V10.6603C20.8127 11.1904 21.4666 11.4409 21.8208 11.0465C22.1499 10.6808 22.6173 10.4729 23.1092 10.4729C24.0739 10.4729 24.8436 11.2425 24.8436 12.2072C24.8436 13.1716 24.0745 13.941 23.1103 13.9416C22.618 13.941 22.1494 13.7312 21.8208 13.3646C21.4666 12.9703 20.8127 13.2207 20.8125 13.7508V17.1213H18.5452C18.6994 16.7644 18.7885 16.3792 18.7891 15.982V15.9808C18.7891 14.3912 17.488 13.0902 15.8984 13.0902C14.3088 13.0902 13.0078 14.3912 13.0078 15.9808V15.982C13.0084 16.3792 13.0974 16.7644 13.2517 17.1213H10.4062C10.0973 17.1217 9.82838 17.3721 9.82812 17.6994C9.82812 21.6781 11.8605 25.2782 15.0516 27.3706C15.6132 27.7389 16.1873 28.6664 16.1875 29.2619V31.7969C16.1875 32.7479 16.9709 33.5312 17.9219 33.5312V35.0262C17.9219 36.1095 18.8124 37 19.8956 37H22.8856C23.9689 37 24.8594 36.1095 24.8594 35.0262V33.5312C25.8104 33.5312 26.5938 32.7479 26.5938 31.7969C26.5927 30.9523 26.5946 30.1077 26.596 29.2631C26.597 28.6671 27.1717 27.7381 27.7331 27.3695C30.961 25.25 32.9531 21.6291 32.9531 17.6994C32.9531 11.3205 27.7696 6.13693 21.3906 6.13693ZM21.9688 7.31012C27.2617 7.59896 31.4911 11.8284 31.7799 17.1213H28.4264C27.8963 17.1215 27.6458 17.7754 28.0402 18.1296C28.4068 18.4582 28.6164 18.9268 28.6172 19.4191C28.6166 20.3833 27.8471 21.1524 26.8828 21.1524C25.9181 21.1524 25.1484 20.3827 25.1484 19.418C25.1485 18.9261 25.3564 18.4576 25.722 18.1285C26.093 17.73 25.8656 17.1231 25.3359 17.1213H21.9688V14.854C22.3254 15.008 22.7112 15.0973 23.1081 15.0979H23.1092C24.6988 15.0979 25.9998 13.7968 25.9998 12.2072C25.9998 10.6177 24.6988 9.31662 23.1092 9.31662C22.7119 9.31668 22.326 9.40442 21.9688 9.55826L21.9688 7.31012ZM15.8984 14.2465C16.8632 14.2465 17.6328 15.0161 17.6328 15.9809C17.6318 16.4728 17.4221 16.9409 17.0558 17.2692C16.6614 17.6234 16.9119 18.2774 17.442 18.2776H20.8125V20.5449C20.4556 20.3906 20.0704 20.3016 19.6732 20.301H19.672C18.0824 20.301 16.7814 21.602 16.7814 23.1916C16.7814 24.7812 18.0824 26.0822 19.672 26.0822H19.6732C20.0703 26.0815 20.4556 25.9914 20.8125 25.8372V30.0625H17.3438V29.2619C17.3434 28.0917 16.5999 27.0032 15.6862 26.4041C12.9706 24.6235 11.1878 21.63 11.0024 18.2776H14.3549C14.885 18.2774 15.1354 17.6234 14.7411 17.2692C14.3745 16.9406 14.1648 16.472 14.1641 15.9797C14.1646 15.0156 14.9341 14.2465 15.8984 14.2465ZM21.9688 18.2776H24.235C24.0814 18.6345 23.9922 19.0211 23.9922 19.418C23.9922 21.0076 25.2932 22.3086 26.8828 22.3086C28.4724 22.3086 29.7734 21.0076 29.7734 19.418C29.7734 19.1468 29.729 18.7395 29.5295 18.2775H31.7777C31.5939 21.5903 29.8449 24.5996 27.0985 26.4029C26.1851 27.0026 25.4417 28.091 25.4398 29.2608L25.4386 30.0625H21.9688V24.7351C21.9686 24.205 21.3146 23.9546 20.9604 24.349C20.6321 24.7152 20.1642 24.9248 19.6721 24.926C18.7073 24.926 17.9377 24.1563 17.9377 23.1916C17.9377 22.2273 18.7067 21.4578 19.6709 21.4572C20.1632 21.4578 20.6318 21.6676 20.9604 22.0342C21.3146 22.4286 21.9686 22.1781 21.9688 21.648V18.2776ZM17.3438 31.2188H25.4375V31.7969C25.4375 32.123 25.1855 32.375 24.8594 32.375H17.9219C17.5957 32.375 17.3438 32.123 17.3438 31.7969V31.2188ZM19.0781 33.5312H23.7031V35.0262C23.7031 35.4846 23.344 35.8438 22.8856 35.8438H19.8956C19.4372 35.8438 19.0781 35.4846 19.0781 35.0262V33.5312Z" fill="#6EF667" stroke="#6EF667" stroke-width="0.5"/>
  </g>
  <defs>
    <clipPath id="clip0_1497_1793">
      <rect width="37" height="37" fill="white"/>
    </clipPath>
  </defs>
</svg>