<svg xmlns="http://www.w3.org/2000/svg" width="37" height="37" viewBox="0 0 37 37" fill="none">
  <mask id="path-1-inside-1_1497_1801" fill="white">
    <path d="M31.4372 0.720406C31.706 0.573071 32.0224 0.538539 32.3167 0.624402C32.611 0.710264 32.8592 0.909493 33.0066 1.17828C34.6199 4.12604 35.463 7.43332 35.4579 10.7937C35.4579 14.2747 34.5699 17.5523 33.0066 20.4075C32.8594 20.6765 32.6114 20.8761 32.317 20.9622C32.0227 21.0484 31.7062 21.0141 31.4372 20.8669C31.1681 20.7197 30.9686 20.4717 30.8824 20.1773C30.7963 19.883 30.8306 19.5665 30.9778 19.2975C32.4052 16.6907 33.1513 13.7657 33.1469 10.7937C33.1469 7.71032 32.3606 4.81199 30.9778 2.28982C30.9049 2.15661 30.8589 2.01034 30.8426 1.85937C30.8262 1.70841 30.8398 1.55569 30.8824 1.40996C30.9251 1.26422 30.996 1.12832 31.0912 1.01C31.1864 0.891688 31.304 0.793283 31.4372 0.720406ZM26.6549 4.71949C26.9367 4.59851 27.2549 4.59437 27.5397 4.70799C27.8244 4.82161 28.0524 5.04368 28.1735 5.32536C28.9131 7.05349 29.2939 8.91389 29.2927 10.7937C29.2935 12.6724 28.9127 14.5317 28.1735 16.2589C28.1166 16.4026 28.0315 16.5336 27.9231 16.6439C27.8148 16.7542 27.6854 16.8416 27.5427 16.9011C27.3999 16.9605 27.2467 16.9907 27.0921 16.9899C26.9375 16.9891 26.7846 16.9572 26.6425 16.8963C26.5004 16.8353 26.372 16.7465 26.2648 16.6351C26.1576 16.5236 26.0739 16.3918 26.0186 16.2474C25.9632 16.103 25.9374 15.949 25.9427 15.7945C25.9479 15.64 25.9841 15.488 26.0491 15.3477C26.664 13.9083 26.9803 12.359 26.9787 10.7937C26.9798 9.22825 26.663 7.67892 26.0475 6.23957C25.9265 5.95785 25.9224 5.63962 26.036 5.35485C26.1496 5.07008 26.3717 4.84209 26.6534 4.72103M27.7526 25.0525C27.7526 24.1331 27.3876 23.2513 26.7377 22.6008C26.0879 21.9504 25.2064 21.5846 24.2869 21.5838H6.55469C5.63472 21.5838 4.75243 21.9492 4.10191 22.5998C3.45139 23.2503 3.08594 24.1326 3.08594 25.0525V25.9421C3.08594 27.3188 3.57927 28.6492 4.47344 29.696C6.88615 32.525 10.5661 33.9202 15.4146 33.9202C20.2632 33.9202 23.9447 32.525 26.3636 29.6976C27.2598 28.6504 27.7525 27.3174 27.7526 25.939V25.0525ZM6.55469 23.8963H24.2869C24.5931 23.8971 24.8864 24.0193 25.1025 24.236C25.3187 24.4528 25.4401 24.7464 25.4401 25.0525V25.939C25.4404 26.766 25.1451 27.5659 24.6076 28.1944C22.6697 30.4576 19.6373 31.6077 15.4146 31.6077C11.192 31.6077 8.16265 30.4576 6.23094 28.1944C5.69447 27.5671 5.39929 26.769 5.39844 25.9436V25.0525C5.39844 24.7459 5.52026 24.4518 5.7371 24.2349C5.95393 24.0181 6.24803 23.8963 6.55469 23.8963ZM23.1245 10.8014C23.1245 8.75699 22.3124 6.79634 20.8668 5.35075C19.4212 3.90516 17.4606 3.09303 15.4162 3.09303C13.3718 3.09303 11.4112 3.90516 9.96557 5.35075C8.51998 6.79634 7.70785 8.75699 7.70785 10.8014C7.70785 12.8457 8.51998 14.8064 9.96557 16.252C11.4112 17.6976 13.3718 18.5097 15.4162 18.5097C17.4606 18.5097 19.4212 17.6976 20.8668 16.252C22.3124 14.8064 23.1245 12.8457 23.1245 10.8014ZM10.0204 10.8014C10.0204 10.0928 10.1599 9.39112 10.4311 8.73647C10.7023 8.08182 11.0997 7.48698 11.6008 6.98593C12.1018 6.48488 12.6966 6.08743 13.3513 5.81626C14.0059 5.5451 14.7076 5.40553 15.4162 5.40553C16.1248 5.40553 16.8264 5.5451 17.4811 5.81626C18.1357 6.08743 18.7306 6.48488 19.2316 6.98593C19.7327 7.48698 20.1301 8.08182 20.4013 8.73647C20.6725 9.39112 20.812 10.0928 20.812 10.8014C20.812 12.2324 20.2435 13.6049 19.2316 14.6168C18.2197 15.6287 16.8473 16.1972 15.4162 16.1972C13.9851 16.1972 12.6127 15.6287 11.6008 14.6168C10.5888 13.6049 10.0204 12.2324 10.0204 10.8014Z"/>
  </mask>
  <path d="M31.4372 0.720406C31.706 0.573071 32.0224 0.538539 32.3167 0.624402C32.611 0.710264 32.8592 0.909493 33.0066 1.17828C34.6199 4.12604 35.463 7.43332 35.4579 10.7937C35.4579 14.2747 34.5699 17.5523 33.0066 20.4075C32.8594 20.6765 32.6114 20.8761 32.317 20.9622C32.0227 21.0484 31.7062 21.0141 31.4372 20.8669C31.1681 20.7197 30.9686 20.4717 30.8824 20.1773C30.7963 19.883 30.8306 19.5665 30.9778 19.2975C32.4052 16.6907 33.1513 13.7657 33.1469 10.7937C33.1469 7.71032 32.3606 4.81199 30.9778 2.28982C30.9049 2.15661 30.8589 2.01034 30.8426 1.85937C30.8262 1.70841 30.8398 1.55569 30.8824 1.40996C30.9251 1.26422 30.996 1.12832 31.0912 1.01C31.1864 0.891688 31.304 0.793283 31.4372 0.720406ZM26.6549 4.71949C26.9367 4.59851 27.2549 4.59437 27.5397 4.70799C27.8244 4.82161 28.0524 5.04368 28.1735 5.32536C28.9131 7.05349 29.2939 8.91389 29.2927 10.7937C29.2935 12.6724 28.9127 14.5317 28.1735 16.2589C28.1166 16.4026 28.0315 16.5336 27.9231 16.6439C27.8148 16.7542 27.6854 16.8416 27.5427 16.9011C27.3999 16.9605 27.2467 16.9907 27.0921 16.9899C26.9375 16.9891 26.7846 16.9572 26.6425 16.8963C26.5004 16.8353 26.372 16.7465 26.2648 16.6351C26.1576 16.5236 26.0739 16.3918 26.0186 16.2474C25.9632 16.103 25.9374 15.949 25.9427 15.7945C25.9479 15.64 25.9841 15.488 26.0491 15.3477C26.664 13.9083 26.9803 12.359 26.9787 10.7937C26.9798 9.22825 26.663 7.67892 26.0475 6.23957C25.9265 5.95785 25.9224 5.63962 26.036 5.35485C26.1496 5.07008 26.3717 4.84209 26.6534 4.72103M27.7526 25.0525C27.7526 24.1331 27.3876 23.2513 26.7377 22.6008C26.0879 21.9504 25.2064 21.5846 24.2869 21.5838H6.55469C5.63472 21.5838 4.75243 21.9492 4.10191 22.5998C3.45139 23.2503 3.08594 24.1326 3.08594 25.0525V25.9421C3.08594 27.3188 3.57927 28.6492 4.47344 29.696C6.88615 32.525 10.5661 33.9202 15.4146 33.9202C20.2632 33.9202 23.9447 32.525 26.3636 29.6976C27.2598 28.6504 27.7525 27.3174 27.7526 25.939V25.0525ZM6.55469 23.8963H24.2869C24.5931 23.8971 24.8864 24.0193 25.1025 24.236C25.3187 24.4528 25.4401 24.7464 25.4401 25.0525V25.939C25.4404 26.766 25.1451 27.5659 24.6076 28.1944C22.6697 30.4576 19.6373 31.6077 15.4146 31.6077C11.192 31.6077 8.16265 30.4576 6.23094 28.1944C5.69447 27.5671 5.39929 26.769 5.39844 25.9436V25.0525C5.39844 24.7459 5.52026 24.4518 5.7371 24.2349C5.95393 24.0181 6.24803 23.8963 6.55469 23.8963ZM23.1245 10.8014C23.1245 8.75699 22.3124 6.79634 20.8668 5.35075C19.4212 3.90516 17.4606 3.09303 15.4162 3.09303C13.3718 3.09303 11.4112 3.90516 9.96557 5.35075C8.51998 6.79634 7.70785 8.75699 7.70785 10.8014C7.70785 12.8457 8.51998 14.8064 9.96557 16.252C11.4112 17.6976 13.3718 18.5097 15.4162 18.5097C17.4606 18.5097 19.4212 17.6976 20.8668 16.252C22.3124 14.8064 23.1245 12.8457 23.1245 10.8014ZM10.0204 10.8014C10.0204 10.0928 10.1599 9.39112 10.4311 8.73647C10.7023 8.08182 11.0997 7.48698 11.6008 6.98593C12.1018 6.48488 12.6966 6.08743 13.3513 5.81626C14.0059 5.5451 14.7076 5.40553 15.4162 5.40553C16.1248 5.40553 16.8264 5.5451 17.4811 5.81626C18.1357 6.08743 18.7306 6.48488 19.2316 6.98593C19.7327 7.48698 20.1301 8.08182 20.4013 8.73647C20.6725 9.39112 20.812 10.0928 20.812 10.8014C20.812 12.2324 20.2435 13.6049 19.2316 14.6168C18.2197 15.6287 16.8473 16.1972 15.4162 16.1972C13.9851 16.1972 12.6127 15.6287 11.6008 14.6168C10.5888 13.6049 10.0204 12.2324 10.0204 10.8014Z" fill="#6EF667"/>
  <path d="M31.4372 0.720406L31.9171 1.59772L31.9178 1.59735L31.4372 0.720406ZM33.0066 1.17828L33.8838 0.69819L33.8834 0.697332L33.0066 1.17828ZM35.4579 10.7937L34.4579 10.7921V10.7937H35.4579ZM33.0066 20.4075L32.1295 19.9272L32.1293 19.9275L33.0066 20.4075ZM30.9778 19.2975L30.1007 18.8172L30.1005 18.8175L30.9778 19.2975ZM33.1469 10.7937H32.1469L32.1469 10.7951L33.1469 10.7937ZM30.9778 2.28982L30.1005 2.76985L30.1009 2.77059L30.9778 2.28982ZM28.1735 5.32536L29.0928 4.93188L29.0922 4.93051L28.1735 5.32536ZM29.2927 10.7937L28.2927 10.793V10.7941L29.2927 10.7937ZM28.1735 16.2589L27.2541 15.8654L27.2487 15.8782L27.2436 15.8911L28.1735 16.2589ZM26.0491 15.3477L26.9565 15.768L26.9628 15.7544L26.9687 15.7406L26.0491 15.3477ZM26.9787 10.7937L25.9787 10.793L25.9787 10.7947L26.9787 10.7937ZM26.0475 6.23957L26.967 5.8464L26.9664 5.84498L26.0475 6.23957ZM27.7526 25.0525H26.7526H27.7526ZM24.2869 21.5838L24.2878 20.5838H24.2869V21.5838ZM3.08594 25.0525H2.08594H3.08594ZM4.47344 29.696L5.2343 29.0471L5.2338 29.0465L4.47344 29.696ZM26.3636 29.6976L25.6038 29.0473L25.6037 29.0475L26.3636 29.6976ZM27.7526 25.939L28.7526 25.9391V25.939H27.7526ZM24.2869 23.8963L24.2896 22.8963H24.2869V23.8963ZM25.4401 25.0525L24.4401 25.0525V25.0525H25.4401ZM25.4401 25.939H24.4401V25.9393L25.4401 25.939ZM24.6076 28.1944L25.3672 28.8449L25.3676 28.8444L24.6076 28.1944ZM6.23094 28.1944L6.99155 27.5452L6.99094 27.5445L6.23094 28.1944ZM5.39844 25.9436H4.39844L4.39844 25.9446L5.39844 25.9436ZM23.1245 10.8014H24.1245H23.1245ZM15.4162 3.09303V2.09303V3.09303ZM7.70785 10.8014H6.70785H7.70785ZM10.0204 10.8014H11.0204H10.0204ZM15.4162 5.40553V6.40553V5.40553ZM20.812 10.8014H21.812H20.812ZM15.4162 16.1972V15.1972V16.1972ZM31.9178 1.59735C31.9541 1.57744 31.9969 1.57278 32.0366 1.58438L32.5968 -0.335577C32.0479 -0.4957 31.458 -0.431301 30.9566 -0.156543L31.9178 1.59735ZM32.0366 1.58438C32.0764 1.59598 32.1099 1.62291 32.1299 1.65923L33.8834 0.697332C33.6084 0.196078 33.1456 -0.175455 32.5968 -0.335577L32.0366 1.58438ZM32.1294 1.65837C33.6618 4.45848 34.4627 7.6001 34.4579 10.7921L36.4579 10.7952C36.4633 7.26653 35.5779 3.7936 33.8838 0.69819L32.1294 1.65837ZM34.4579 10.7937C34.4579 14.1028 33.6141 17.2157 32.1295 19.9272L33.8837 20.8877C35.5256 17.889 36.4579 14.4467 36.4579 10.7937H34.4579ZM32.1293 19.9275C32.1094 19.9639 32.0759 19.9909 32.0361 20.0025L32.598 21.922C33.1468 21.7613 33.6094 21.3892 33.8839 20.8875L32.1293 19.9275ZM32.0361 20.0025C31.9963 20.0142 31.9535 20.0095 31.9172 19.9896L30.9572 21.7442C31.4589 22.0187 32.0491 22.0826 32.598 21.922L32.0361 20.0025ZM31.9172 19.9896C31.8808 19.9697 31.8538 19.9362 31.8422 19.8964L29.9227 20.4583C30.0834 21.0071 30.4555 21.4697 30.9572 21.7442L31.9172 19.9896ZM31.8422 19.8964C31.8305 19.8566 31.8352 19.8138 31.8551 19.7775L30.1005 18.8175C29.826 19.3192 29.7621 19.9094 29.9227 20.4583L31.8422 19.8964ZM31.8549 19.7778C33.3631 17.0233 34.1515 13.9326 34.1469 10.7922L32.1469 10.7951C32.151 13.5988 31.4472 16.3581 30.1007 18.8172L31.8549 19.7778ZM34.1469 10.7937C34.1469 7.53837 33.3164 4.47513 31.8546 1.80906L30.1009 2.77059C31.4049 5.14885 32.1469 7.88228 32.1469 10.7937H34.1469ZM31.855 1.8098C31.8452 1.7918 31.839 1.77203 31.8368 1.75163L29.8484 1.96712C29.8789 2.24865 29.9646 2.52142 30.1005 2.76984L31.855 1.8098ZM31.8368 1.75163C31.8345 1.73123 31.8364 1.7106 31.8421 1.6909L29.9227 1.12902C29.8431 1.40079 29.8179 1.68558 29.8484 1.96712L31.8368 1.75163ZM31.8421 1.6909C31.8479 1.67121 31.8575 1.65284 31.8704 1.63685L30.3121 0.383153C30.1346 0.603789 30.0023 0.857233 29.9227 1.12902L31.8421 1.6909ZM31.8704 1.63685C31.8832 1.62086 31.8991 1.60756 31.9171 1.59772L30.9573 -0.156905C30.7088 -0.0209974 30.4896 0.162516 30.3121 0.383153L31.8704 1.63685ZM27.0495 5.63835C27.0876 5.622 27.1306 5.62144 27.1691 5.63679L27.9102 3.77919C27.3792 3.56731 26.7857 3.57502 26.2603 3.80063L27.0495 5.63835ZM27.1691 5.63679C27.2076 5.65214 27.2384 5.68215 27.2547 5.72022L29.0922 4.93051C28.8665 4.40521 28.4413 3.99107 27.9102 3.77919L27.1691 5.63679ZM27.2541 5.71884C27.9405 7.32242 28.2938 9.04874 28.2927 10.793L30.2927 10.7943C30.294 8.77905 29.8858 6.78456 29.0928 4.93188L27.2541 5.71884ZM28.2927 10.7941C28.2934 12.5374 27.9401 14.2627 27.2541 15.8654L29.0928 16.6523C29.8853 14.8007 30.2936 12.8074 30.2927 10.7932L28.2927 10.7941ZM27.2436 15.8911C27.2359 15.9105 27.2244 15.9282 27.2097 15.9431L28.6366 17.3446C28.8386 17.1389 28.9974 16.8948 29.1034 16.6266L27.2436 15.8911ZM27.2097 15.9431C27.1951 15.958 27.1776 15.9699 27.1583 15.9779L27.9271 17.8243C28.1933 17.7134 28.4345 17.5503 28.6366 17.3446L27.2097 15.9431ZM27.1583 15.9779C27.139 15.9859 27.1183 15.99 27.0974 15.9899L27.0868 17.9899C27.3751 17.9914 27.6609 17.9351 27.9271 17.8243L27.1583 15.9779ZM27.0974 15.9899C27.0765 15.9898 27.0559 15.9855 27.0367 15.9773L26.2483 17.8153C26.5134 17.929 26.7985 17.9883 27.0868 17.9899L27.0974 15.9899ZM27.0367 15.9773C27.0175 15.969 27.0001 15.957 26.9856 15.9419L25.544 17.3282C25.7438 17.536 25.9833 17.7017 26.2483 17.8153L27.0367 15.9773ZM26.9856 15.9419C26.9711 15.9269 26.9598 15.9091 26.9524 15.8896L25.0848 16.6053C25.188 16.8745 25.3441 17.1203 25.544 17.3282L26.9856 15.9419ZM26.9524 15.8896C26.9449 15.8701 26.9414 15.8492 26.9421 15.8284L24.9432 15.7606C24.9335 16.0488 24.9816 16.336 25.0848 16.6053L26.9524 15.8896ZM26.9421 15.8284C26.9428 15.8075 26.9477 15.7869 26.9565 15.768L25.1417 14.9275C25.0205 15.1891 24.953 15.4724 24.9432 15.7606L26.9421 15.8284ZM26.9687 15.7406C27.6368 14.1767 27.9804 12.4933 27.9787 10.7926L25.9787 10.7947C25.9801 12.2246 25.6912 13.6399 25.1295 14.9549L26.9687 15.7406ZM27.9787 10.7944C27.9799 9.09356 27.6357 7.41023 26.967 5.8464L25.1281 6.63274C25.6903 7.9476 25.9797 9.36294 25.9787 10.793L27.9787 10.7944ZM26.9664 5.84498C26.95 5.80691 26.9495 5.76391 26.9648 5.72542L25.1072 4.98427C24.8953 5.51532 24.9031 6.10879 25.1287 6.63416L26.9664 5.84498ZM26.9648 5.72542C26.9802 5.68694 27.0102 5.65613 27.0483 5.63977L26.2585 3.80229C25.7332 4.02805 25.3191 4.45321 25.1072 4.98427L26.9648 5.72542ZM28.7526 25.0525C28.7526 23.868 28.2823 22.732 27.4451 21.8941L26.0303 23.3076C26.4928 23.7706 26.7526 24.3982 26.7526 25.0525L28.7526 25.0525ZM27.4451 21.8941C26.6079 21.0561 25.4723 20.5848 24.2878 20.5838L24.286 22.5838C24.9404 22.5844 25.5678 22.8447 26.0303 23.3076L27.4451 21.8941ZM24.2869 20.5838H6.55469V22.5838H24.2869V20.5838ZM6.55469 20.5838C5.3695 20.5838 4.23286 21.0546 3.3948 21.8926L4.80902 23.3069C5.272 22.8439 5.89993 22.5838 6.55469 22.5838V20.5838ZM3.3948 21.8926C2.55675 22.7307 2.08594 23.8673 2.08594 25.0525H4.08594C4.08594 24.3978 4.34604 23.7698 4.80902 23.3069L3.3948 21.8926ZM2.08594 25.0525V25.9421H4.08594V25.0525H2.08594ZM2.08594 25.9421C2.08594 27.5581 2.66503 29.1186 3.71308 30.3455L5.2338 29.0465C4.49351 28.1799 4.08594 27.0795 4.08594 25.9421H2.08594ZM3.71257 30.3449C6.37313 33.4645 10.3761 34.9202 15.4146 34.9202V32.9202C10.7561 32.9202 7.39916 31.5855 5.2343 29.0471L3.71257 30.3449ZM15.4146 34.9202C20.4535 34.9202 24.457 33.4644 27.1234 30.3476L25.6037 29.0475C23.4324 31.5856 20.0729 32.9202 15.4146 32.9202V34.9202ZM27.1233 30.3478C28.1746 29.1195 28.7524 27.5559 28.7526 25.9391L26.7526 25.9389C26.7525 27.0789 26.3451 28.1813 25.6038 29.0473L27.1233 30.3478ZM28.7526 25.939V25.0525H26.7526V25.939H28.7526ZM6.55469 24.8963H24.2869V22.8963H6.55469V24.8963ZM24.2843 24.8963C24.3256 24.8964 24.3653 24.9129 24.3945 24.9422L25.8106 23.5299C25.4075 23.1257 24.8605 22.8978 24.2896 22.8963L24.2843 24.8963ZM24.3945 24.9422C24.4237 24.9715 24.4401 25.0112 24.4401 25.0525L26.4401 25.0525C26.4401 24.4817 26.2137 23.9341 25.8106 23.5299L24.3945 24.9422ZM24.4401 25.0525V25.939H26.4401V25.0525H24.4401ZM24.4401 25.9393C24.4403 26.5279 24.2302 27.0972 23.8476 27.5445L25.3676 28.8444C26.0601 28.0346 26.4404 27.0041 26.4401 25.9387L24.4401 25.9393ZM23.848 27.544C22.1651 29.5095 19.4626 30.6077 15.4146 30.6077V32.6077C19.812 32.6077 23.1744 31.4058 25.3672 28.8449L23.848 27.544ZM15.4146 30.6077C11.3665 30.6077 8.66801 29.5094 6.99155 27.5452L5.47033 28.8437C7.65728 31.4059 11.0176 32.6077 15.4146 32.6077V30.6077ZM6.99094 27.5445C6.60913 27.098 6.39904 26.53 6.39844 25.9426L4.39844 25.9446C4.39954 27.008 4.77981 28.0362 5.47094 28.8444L6.99094 27.5445ZM6.39844 25.9436V25.0525H4.39844V25.9436H6.39844ZM6.39844 25.0525C6.39844 25.0111 6.4149 24.9713 6.4442 24.942L5.02999 23.5278C4.62561 23.9322 4.39844 24.4807 4.39844 25.0525H6.39844ZM6.4442 24.942C6.47351 24.9127 6.51325 24.8963 6.55469 24.8963V22.8963C5.98281 22.8963 5.43436 23.1235 5.02999 23.5278L6.4442 24.942ZM24.1245 10.8014C24.1245 8.49177 23.207 6.27677 21.5739 4.64364L20.1597 6.05786C21.4178 7.31591 22.1245 9.0222 22.1245 10.8014H24.1245ZM21.5739 4.64364C19.9408 3.01051 17.7258 2.09303 15.4162 2.09303V4.09303C17.1953 4.09303 18.9016 4.7998 20.1597 6.05786L21.5739 4.64364ZM15.4162 2.09303C13.1066 2.09303 10.8916 3.01051 9.25847 4.64364L10.6727 6.05786C11.9307 4.7998 13.637 4.09303 15.4162 4.09303V2.09303ZM9.25847 4.64364C7.62534 6.27677 6.70785 8.49177 6.70785 10.8014H8.70785C8.70785 9.0222 9.41462 7.31591 10.6727 6.05786L9.25847 4.64364ZM6.70785 10.8014C6.70785 13.111 7.62534 15.326 9.25847 16.9591L10.6727 15.5449C9.41462 14.2868 8.70785 12.5805 8.70785 10.8014H6.70785ZM9.25847 16.9591C10.8916 18.5922 13.1066 19.5097 15.4162 19.5097V17.5097C13.637 17.5097 11.9307 16.8029 10.6727 15.5449L9.25847 16.9591ZM15.4162 19.5097C17.7258 19.5097 19.9408 18.5922 21.5739 16.9591L20.1597 15.5449C18.9016 16.8029 17.1953 17.5097 15.4162 17.5097V19.5097ZM21.5739 16.9591C23.207 15.326 24.1245 13.111 24.1245 10.8014H22.1245C22.1245 12.5805 21.4178 14.2868 20.1597 15.5449L21.5739 16.9591ZM11.0204 10.8014C11.0204 10.2241 11.1341 9.65248 11.355 9.11915L9.50721 8.35379C9.18579 9.12976 9.02035 9.96145 9.02035 10.8014H11.0204ZM11.355 9.11915C11.5759 8.58582 11.8997 8.10123 12.3079 7.69304L10.8937 6.27883C10.2997 6.87274 9.82863 7.57781 9.50721 8.35379L11.355 9.11915ZM12.3079 7.69304C12.7161 7.28485 13.2006 6.96106 13.734 6.74014L12.9686 4.89238C12.1926 5.21381 11.4876 5.68492 10.8937 6.27883L12.3079 7.69304ZM13.734 6.74014C14.2673 6.51923 14.8389 6.40553 15.4162 6.40553V4.40553C14.5763 4.40553 13.7446 4.57096 12.9686 4.89238L13.734 6.74014ZM15.4162 6.40553C15.9935 6.40553 16.5651 6.51923 17.0984 6.74014L17.8638 4.89238C17.0878 4.57096 16.2561 4.40553 15.4162 4.40553V6.40553ZM17.0984 6.74014C17.6317 6.96106 18.1163 7.28485 18.5245 7.69304L19.9387 6.27883C19.3448 5.68492 18.6397 5.21381 17.8638 4.89238L17.0984 6.74014ZM18.5245 7.69304C18.9327 8.10123 19.2565 8.58582 19.4774 9.11915L21.3252 8.35379C21.0037 7.57781 20.5326 6.87274 19.9387 6.27883L18.5245 7.69304ZM19.4774 9.11915C19.6983 9.65248 19.812 10.2241 19.812 10.8014H21.812C21.812 9.96145 21.6466 9.12976 21.3252 8.35379L19.4774 9.11915ZM19.812 10.8014C19.812 11.9672 19.3489 13.0853 18.5245 13.9097L19.9387 15.3239C21.1382 14.1245 21.812 12.4976 21.812 10.8014H19.812ZM18.5245 13.9097C17.7001 14.7341 16.582 15.1972 15.4162 15.1972V17.1972C17.1125 17.1972 18.7393 16.5234 19.9387 15.3239L18.5245 13.9097ZM15.4162 15.1972C14.2503 15.1972 13.1322 14.7341 12.3079 13.9097L10.8937 15.3239C12.0931 16.5234 13.7199 17.1972 15.4162 17.1972V15.1972ZM12.3079 13.9097C11.4835 13.0853 11.0204 11.9672 11.0204 10.8014H9.02035C9.02035 12.4976 9.6942 14.1245 10.8937 15.3239L12.3079 13.9097Z" fill="#6EF667" mask="url(#path-1-inside-1_1497_1801)"/>
</svg>