<svg xmlns="http://www.w3.org/2000/svg" width="37" height="37" viewBox="0 0 37 37" fill="none">
  <path d="M25.0367 17.7429L27.4571 15.3225L21.6758 9.54121L19.2554 11.9616L12.8729 5.59454C11.6704 4.39204 9.7125 4.39204 8.51 5.59454L5.58083 8.52371C4.37833 9.72621 4.37833 11.6841 5.58083 12.8866L11.9479 19.2537L4.625 26.592V32.3733H10.4062L17.7446 25.035L24.1117 31.402C25.5763 32.8666 27.5496 32.327 28.4746 31.402L31.4038 28.4729C32.6063 27.2704 32.6063 25.3125 31.4038 24.11L25.0367 17.7429ZM14.1525 17.0645L7.77 10.6975L10.6837 7.76829L12.6417 9.72621L10.8225 11.5608L12.9963 13.7345L14.8308 11.9L17.0662 14.1354L14.1525 17.0645ZM26.3008 29.2283L19.9338 22.8612L22.8629 19.932L25.0983 22.1675L23.2638 24.002L25.4375 26.1758L27.2721 24.3412L29.23 26.2991L26.3008 29.2283ZM31.9279 10.8516C32.0708 10.709 32.1842 10.5396 32.2616 10.3531C32.3389 10.1666 32.3788 9.96666 32.3788 9.76475C32.3788 9.56284 32.3389 9.36291 32.2616 9.17641C32.1842 8.98991 32.0708 8.8205 31.9279 8.67787L28.3204 5.07037C27.5958 4.34579 26.5937 4.62329 26.1467 5.07037L23.3254 7.89162L29.1067 13.6729L31.9279 10.8516Z" fill="#6EF667"/>
</svg>