<svg xmlns="http://www.w3.org/2000/svg" width="37" height="37" viewBox="0 0 37 37" fill="none">
  <path d="M26.3071 17.1424H24.869V14.8265C24.869 14.6111 24.6959 14.436 24.4828 14.436H19.4293V11.8239H20.7542C21.1404 11.8239 21.4533 11.5075 21.4533 11.117V8.70689C21.4533 8.31642 21.1404 8 20.7542 8H17.1921C16.8059 8 16.493 8.31642 16.493 8.70689V11.117C16.493 11.5075 16.8059 11.8239 17.1921 11.8239H18.5171V14.436H13.5701C13.357 14.436 13.1839 14.6111 13.1839 14.8265V17.1424H11.6991C11.3129 17.1424 11 17.4588 11 17.8493V20.2595C11 20.6499 11.3129 20.9663 11.6991 20.9663H15.2612C15.6474 20.9663 15.9603 20.6499 15.9603 20.2595V17.8493C15.9603 17.4588 15.6474 17.1424 15.2612 17.1424H13.8497V15.7488C13.8497 15.5334 14.0228 15.3584 14.2359 15.3584H18.5171V17.1761H17.2454C16.8592 17.1761 16.5463 17.4925 16.5463 17.883V20.2931C16.5463 20.6836 16.8592 21 17.2454 21H20.8075C21.1937 21 21.5066 20.6836 21.5066 20.2931V17.883C21.5066 17.4925 21.1937 17.1761 20.8075 17.1761H19.4226V15.3584H23.8103C24.0234 15.3584 24.1965 15.5334 24.1965 15.7488V17.1424H22.7384C22.3522 17.1424 22.0393 17.4588 22.0393 17.8493V20.2595C22.0393 20.6499 22.3522 20.9663 22.7384 20.9663H26.3005C26.6867 20.9663 26.9996 20.6499 26.9996 20.2595V17.8493C27.0129 17.4588 26.6933 17.1424 26.3071 17.1424Z" fill="#6EF667"/>
  <path d="M33.5138 32.0265H19.7051V27.3816H33.5073C34.328 27.3816 34.9871 26.7144 34.9871 25.8981L35 3.48999C35 3.09482 34.8449 2.71908 34.5671 2.44052C34.2892 2.15548 33.908 2 33.5203 2H3.4862C2.66556 2 2 2.66726 2 3.48351V25.8916C2 26.7144 2.66556 27.3751 3.47973 27.3751H17.2303V32.02H3.49266C2.67202 32.02 2.01292 32.6873 2.01292 33.5035C2.01292 34.3198 2.67202 35 3.49266 35H33.5138C34.3344 35 34.9935 34.3327 34.9935 33.5165C34.9935 32.7002 34.3344 32.0265 33.5138 32.0265ZM31.5624 26.3905H29.4558C29.2103 26.3905 29.0164 26.1702 29.0164 25.8981C29.0164 25.626 29.2103 25.4058 29.4558 25.4058H31.5624C31.8079 25.4058 32.0018 25.626 32.0018 25.8981C32.0018 26.1702 31.8079 26.3905 31.5624 26.3905ZM4.96593 24.4081V4.9735H32.0341L32.0276 24.4081H4.96593ZM18.9103 26.4747C18.5937 26.7662 18.0961 26.7468 17.8054 26.4229C17.5146 26.1054 17.534 25.6066 17.8571 25.3151C18.1737 25.0236 18.6712 25.043 18.962 25.3669C19.2528 25.6908 19.2269 26.1832 18.9103 26.4747Z" fill="#6EF667"/>
</svg>