<svg width="128" height="128" viewBox="0 0 128 128" fill="none" xmlns="http://www.w3.org/2000/svg">
<path d="M36.8746 18.8686L36.2309 19.4352L33.5327 61.7777C30.6181 107.517 30.7237 104.936 31.704 105.548C31.9491 105.7 41.5891 106.374 61.2279 107.625C88.5387 109.365 90.3957 109.444 90.8061 109.157C91.0515 108.996 91.3667 108.664 91.4988 108.437C91.6749 108.134 92.4761 96.4836 94.4403 65.6589L97.1385 23.3164L96.5719 22.6727L96.0053 22.0289L66.7618 20.1654L37.5184 18.302L36.8746 18.8686ZM52.5477 24.2187C47.9828 26.3387 43.1082 30.2423 40.1347 34.1494L39.344 35.1771L39.7458 28.8716L40.1464 22.5856L47.1351 23.031L54.1043 23.4751L52.5477 24.2187ZM67.2703 24.4905C65.5591 24.891 63.5111 26.2698 62.3782 27.7461C59.1493 31.9701 60.1036 37.9112 64.478 40.9341C66.2616 42.165 68.8526 42.7222 71.0116 42.3697C73.2694 42.004 75.8864 40.3086 77.1455 38.3896C79.0525 35.5317 79.1377 31.7346 77.3708 28.7015C76.5063 27.1959 75.6934 26.4189 73.9924 25.4284L72.689 24.6593L82.7817 25.3025L92.8549 25.9444L92.4286 32.3267C92.1064 37.3828 91.9669 38.648 91.8112 38.3245C91.3741 37.493 90.3734 36.5864 89.7184 36.4074C88.3681 36.0666 86.8932 36.7566 86.0398 38.1527C85.7782 38.5673 85.5951 39.5944 85.3358 42.126C85.1383 43.9951 84.8025 46.1887 84.5758 46.9778C84.0232 48.8831 83.0208 51.387 82.7865 51.372C82.5328 51.3559 80.4355 50.1246 79.5188 49.4389C77.9278 48.2595 76.4652 46.9118 74.8165 45.1015L73.1325 43.2301L71.8619 43.4823C71.1077 43.6303 69.8691 43.6886 68.854 43.6239C65.9452 43.4385 64.0806 42.5553 61.9858 40.3637C60.4978 38.7988 60.6125 38.8453 56.0921 38.4201C53.1689 38.1554 50.7913 37.6314 48.1679 36.6606L47.0202 36.2151L48.684 34.7138C50.6812 32.9006 52.894 31.3951 55.2589 30.2718C56.2283 29.8239 57.2699 29.1651 57.6034 28.8531C58.8606 27.5807 59.0277 25.5725 57.9676 24.3681L57.3645 23.6828L62.5755 24.0345C65.4257 24.2161 67.5486 24.4298 67.2703 24.4905ZM41.3395 40.7729C43.9805 42.3917 48.6762 44.063 52.5337 44.74C53.5999 44.9256 54.4904 45.0999 54.5087 45.1207C54.527 45.1414 53.8224 47.5859 52.9476 50.5487C52.0727 53.5115 50.5178 58.8418 49.4885 62.3828L47.6077 68.8293L46.5049 76.5994L45.4021 84.3695L44.393 86.3633C43.8133 87.4632 42.6502 89.7216 41.7989 91.3922C40.9476 93.0629 39.7844 95.3213 39.2047 96.4212C37.9963 98.7747 37.8095 99.8604 38.4094 101.212L38.8049 102.08L36.9503 101.962L35.0958 101.844L37.1135 70.1795L39.13 38.5348L39.6318 39.2724C39.8998 39.6815 40.6616 40.3377 41.3395 40.7729ZM90.4017 64.4411L89.2797 82.0497L87.3039 78.2976C86.2192 76.2488 84.5404 73.0644 83.5982 71.2403C82.6364 69.4149 81.6124 67.6444 81.3395 67.3134C81.0458 67.0007 80.3679 66.5655 79.8117 66.3732C78.586 65.9227 78.7251 65.8923 72.0805 67.429C69.355 68.059 67.0702 68.5406 67.0349 68.4796C66.98 68.4173 67.1652 67.6646 67.4555 66.8011C69.1151 61.6734 72.2101 52.1682 72.2516 52.1316C72.2736 52.0938 72.9831 52.6486 73.801 53.3476C76.6302 55.7036 81.2991 58.412 83.5375 58.9663C85.1574 59.3831 86.7705 58.3686 87.947 56.2091C89.3228 53.6898 91.2141 48.6161 91.3012 47.2496C91.3162 47.0153 91.3676 46.8226 91.4262 46.8263C91.4848 46.8301 91.0188 54.7584 90.4017 64.4411ZM80.5946 81.7706C83.3411 86.9635 83.6505 87.336 85.4976 87.5713C86.7616 87.7303 87.5989 87.5092 88.5479 86.7661L89.0023 86.403L88.4039 95.7929L87.8043 105.202L66.1352 103.822L44.4857 102.442L45.0139 101.535C45.3001 101.043 47.1517 97.5156 49.1209 93.6817L52.7009 86.7163L53.5074 80.8286C53.9494 77.5834 54.3968 74.8678 54.4604 74.7934C54.5447 74.7008 56.3951 75.1911 58.5467 75.8771C60.6983 76.563 62.6609 77.1389 62.8756 77.1526C63.1099 77.1675 66.2698 76.4868 69.9095 75.6603L76.5529 74.1431L77.3941 75.706C77.8494 76.5583 79.303 79.2774 80.5946 81.7706Z" fill="#FFD5C8"/>
</svg>
