<svg width="57" height="58" viewBox="0 0 57 58" fill="none" xmlns="http://www.w3.org/2000/svg">
<circle cx="28.3754" cy="28.9262" r="28.1879" fill="#49D043" fill-opacity="0.09"/>
<path d="M27.7053 49.059C22.5433 49.059 17.5928 47.0084 13.9428 43.3584C10.2928 39.7083 8.24219 34.7578 8.24219 29.5959C8.24219 24.434 10.2928 19.4835 13.9428 15.8334C17.5928 12.1834 22.5433 10.1328 27.7053 10.1328C32.8672 10.1328 37.8177 12.1834 41.4678 15.8334C45.1178 19.4835 47.1684 24.434 47.1684 29.5959C47.1684 34.7578 45.1178 39.7083 41.4678 43.3584C37.8177 47.0084 32.8672 49.059 27.7053 49.059ZM42.7892 33.4885C43.4484 30.9353 43.4484 28.2565 42.7892 25.7033H35.3543C35.5335 28.2953 35.5335 30.8965 35.3543 33.4885H42.7892ZM41.1932 37.3811H34.9261C34.6009 39.7273 33.9796 42.0228 33.0771 44.2127C36.4962 42.9514 39.3671 40.5349 41.1932 37.3811ZM23.9684 33.4885H31.4422C31.6535 30.8977 31.6535 28.2941 31.4422 25.7033H23.9684C23.757 28.2941 23.757 30.8977 23.9684 33.4885ZM24.4549 37.3811C25.2529 42.0523 26.6543 45.1664 27.7053 45.1664C28.7563 45.1664 30.1576 42.0523 30.9556 37.3811H24.4549ZM12.6214 33.4885H20.0563C19.8771 30.8965 19.8771 28.2953 20.0563 25.7033H12.6214C11.9621 28.2565 11.9621 30.9353 12.6214 33.4885ZM14.2174 37.3811C16.0435 40.5349 18.9143 42.9514 22.3335 44.2127C21.516 42.3442 20.8932 40.0087 20.4845 37.3811H14.2174ZM41.1932 21.8107C39.3671 18.6569 36.4962 16.2404 33.0771 14.9791C33.8945 16.8476 34.5174 19.1831 34.9261 21.8107H41.1932ZM24.4549 21.8107H30.9556C30.1576 17.1395 28.7563 14.0254 27.7053 14.0254C26.6543 14.0254 25.2529 17.1395 24.4549 21.8107ZM14.2174 21.8107H20.4845C20.8737 19.1831 21.516 16.8476 22.3335 14.9791C18.9143 16.2404 16.0435 18.6569 14.2174 21.8107Z" fill="#6EF667"/>
</svg>
