<svg width="57" height="58" viewBox="0 0 57 58" fill="none" xmlns="http://www.w3.org/2000/svg">
<circle cx="28.3754" cy="28.9262" r="28.1879" fill="#49D043" fill-opacity="0.09"/>
<path d="M27.3191 11.8511C24.5948 12.5124 20.7728 17.0617 19.2122 21.5053C18.7626 22.7485 18.7626 24.6396 19.2122 25.4728C19.8999 26.7953 21.1695 27.9591 22.8226 28.7923L23.5765 29.1758H28.0862H32.5959L33.3497 28.7923C34.9631 27.9723 36.2856 26.7688 36.9601 25.4728C37.4097 24.6132 37.4097 22.8939 36.9601 21.5053C35.7434 17.8288 32.2388 13.2926 29.7393 12.1817C28.9722 11.8379 27.9407 11.6924 27.3191 11.8511ZM30.6915 20.368C33.1249 21.0292 33.7597 22.1137 32.9662 24.2297C32.2388 26.1473 30.2551 27.2714 27.7555 27.1656C26.6711 27.1259 26.4198 27.0598 25.5338 26.6234C24.3435 26.0415 23.5897 25.248 23.1929 24.1768C22.8755 23.3436 22.8094 22.2327 23.0342 21.8095C23.4045 21.1218 24.7535 20.4473 26.2611 20.1961C27.2398 20.0374 29.8715 20.1299 30.6915 20.368Z" fill="#6EF667"/>
<path d="M16.1482 27.1529C14.7067 28.4357 14.257 29.0573 13.199 31.2261C12.0617 33.5802 11.6385 34.8762 11.7311 35.7226C11.7707 36.0797 12.2204 37.6667 12.7362 39.2272C13.9529 42.9831 14.0587 43.0757 16.6375 43.1683L18.1981 43.2344L18.1187 42.8509C18.079 42.6393 17.5897 39.9943 17.0475 36.979C16.492 33.9637 16.0292 31.4245 15.9895 31.3319C15.8969 31.041 16.2143 30.1681 16.5582 29.7978C16.9946 29.335 17.5897 29.1763 18.8461 29.1763H19.8644L19.0445 28.3431C18.608 27.8802 18.0658 27.1925 17.841 26.8222C17.6294 26.4519 17.4178 26.1345 17.3781 26.1345C17.3384 26.1345 16.783 26.5974 16.1482 27.1529Z" fill="#6EF667"/>
<path d="M38.2836 26.8851C38.0324 27.3083 37.4769 27.996 37.0537 28.4059L36.2734 29.173H37.305C38.5878 29.173 39.1829 29.3317 39.6193 29.7946C40.2541 30.469 40.2541 30.8261 39.7119 33.8017C39.4474 35.2961 38.9713 37.875 38.6671 39.5546C38.363 41.2209 38.0853 42.7285 38.0456 42.8872C37.9795 43.1914 37.9927 43.1914 39.2755 43.1914C40.8493 43.1914 41.4312 43.0459 42.0395 42.5037C42.4495 42.1466 42.595 41.8028 43.4413 39.2372C44.5919 35.7193 44.6316 35.4019 44.1555 34.0001C43.6662 32.5189 42.3569 29.8342 41.656 28.8688C41.1931 28.2076 39.1829 26.3032 38.8258 26.1577C38.7729 26.1445 38.5217 26.4751 38.2836 26.8851Z" fill="#6EF667"/>
<path d="M18.0564 31.1964C17.9241 31.3683 18.3209 33.9207 19.0879 37.8353C19.1673 38.1924 19.4185 39.5546 19.6434 40.8374L20.0666 43.1914H28.1205C33.6486 43.1914 36.1613 43.1517 36.1613 43.0459C36.1613 42.9798 36.4258 41.4722 36.7564 39.7133C38.3037 31.3022 38.2905 31.3948 38.1318 31.2096C37.907 30.9451 18.2812 30.9319 18.0564 31.1964ZM29.6943 36.2219C31.149 36.936 30.4084 38.1395 28.4379 38.2717C27.9222 38.2982 27.2609 38.2585 26.9567 38.1792C26.3219 38.0072 25.7136 37.4915 25.7136 37.1344C25.7136 36.8038 26.2294 36.3012 26.798 36.0896C27.4064 35.8516 29.0992 35.9309 29.6943 36.2219Z" fill="#6EF667"/>
</svg>
