<svg width="57" height="58" viewBox="0 0 57 58" fill="none" xmlns="http://www.w3.org/2000/svg">
<circle cx="28.3754" cy="28.9262" r="28.1879" fill="#49D043" fill-opacity="0.09"/>
<path d="M28.3805 14.8359C27.7641 14.8359 27.1538 14.9573 26.5844 15.1932C26.015 15.4291 25.4976 15.7748 25.0618 16.2106C24.626 16.6464 24.2803 17.1638 24.0444 17.7332C23.8086 18.3026 23.6872 18.9129 23.6872 19.5292C23.6872 20.1456 23.8086 20.7559 24.0444 21.3253C24.2803 21.8947 24.626 22.4121 25.0618 22.8479C25.4976 23.2837 26.015 23.6294 26.5844 23.8653C27.1538 24.1011 27.7641 24.2225 28.3805 24.2225C29.6252 24.2225 30.8189 23.728 31.6991 22.8479C32.5793 21.9677 33.0737 20.774 33.0737 19.5292C33.0737 18.2845 32.5793 17.0907 31.6991 16.2106C30.8189 15.3304 29.6252 14.8359 28.3805 14.8359ZM38.9509 17.1802C38.0164 17.1802 37.1202 17.5515 36.4594 18.2122C35.7987 18.873 35.4274 19.7692 35.4274 20.7037C35.4274 21.6382 35.7987 22.5344 36.4594 23.1952C37.1202 23.856 38.0164 24.2272 38.9509 24.2272C39.8854 24.2272 40.7816 23.856 41.4424 23.1952C42.1032 22.5344 42.4744 21.6382 42.4744 20.7037C42.4744 19.7692 42.1032 18.873 41.4424 18.2122C40.7816 17.5515 39.8854 17.1802 38.9509 17.1802ZM17.81 17.1802C16.8755 17.1802 15.9793 17.5515 15.3185 18.2122C14.6577 18.873 14.2865 19.7692 14.2865 20.7037C14.2865 21.6382 14.6577 22.5344 15.3185 23.1952C15.9793 23.856 16.8755 24.2272 17.81 24.2272C18.7445 24.2272 19.6407 23.856 20.3015 23.1952C20.9623 22.5344 21.3335 21.6382 21.3335 20.7037C21.3335 19.7692 20.9623 18.873 20.3015 18.2122C19.6407 17.5515 18.7445 17.1802 17.81 17.1802ZM21.3335 28.9088C21.3378 28.2886 21.5872 27.6954 22.0273 27.2584C22.4673 26.8214 23.0623 26.5762 23.6825 26.5762H33.0784C33.7014 26.5762 34.2989 26.8237 34.7394 27.2642C35.18 27.7047 35.4274 28.3022 35.4274 28.9252V35.9722C35.4281 36.7115 35.3123 37.4463 35.0845 38.1497C34.5643 39.744 33.4929 41.1006 32.0625 41.976C30.6322 42.8513 28.9366 43.1881 27.2803 42.9258C25.6239 42.6636 24.1153 41.8194 23.0254 40.5449C21.9355 39.2704 21.3356 37.6491 21.3335 35.9722V28.9088ZM18.9845 28.9252C18.9845 28.0678 19.2123 27.2668 19.614 26.5762H14.2865C13.6635 26.5762 13.066 26.8237 12.6255 27.2642C12.185 27.7047 11.9375 28.3022 11.9375 28.9252V34.7977C11.9372 35.7591 12.1729 36.706 12.624 37.555C13.0752 38.4041 13.7278 39.1294 14.5248 39.6672C15.3217 40.2051 16.2385 40.5391 17.1947 40.6398C18.1508 40.7405 19.1171 40.605 20.0086 40.245C19.334 38.921 18.983 37.4558 18.9845 35.9698V28.9252ZM37.7764 28.9252V35.9722C37.7764 37.5108 37.4076 38.9624 36.7523 40.245C37.6438 40.605 38.6101 40.7405 39.5662 40.6398C40.5224 40.5391 41.4392 40.2051 42.2361 39.6672C43.0331 39.1294 43.6857 38.4041 44.1369 37.555C44.588 36.706 44.8237 35.7591 44.8234 34.7977V28.9252C44.8234 28.3022 44.5759 27.7047 44.1354 27.2642C43.6949 26.8237 43.0974 26.5762 42.4744 26.5762H37.1469C37.5462 27.2668 37.7764 28.0678 37.7764 28.9252Z" fill="#6EF667"/>
</svg>
