<svg width="57" height="58" viewBox="0 0 57 58" fill="none" xmlns="http://www.w3.org/2000/svg">
<circle cx="28.3754" cy="28.9262" r="28.1879" fill="#49D043" fill-opacity="0.09"/>
<g clip-path="url(#clip0_1497_1158)">
<path fill-rule="evenodd" clip-rule="evenodd" d="M28.867 13.3649C28.7119 13.2943 28.5435 13.2578 28.373 13.2578C28.2026 13.2578 28.0342 13.2943 27.8791 13.3649L21.6199 16.2141L28.3683 19.2876L35.1214 16.2117L28.867 13.3649ZM20.4983 25.6112V18.3236L27.1799 21.3661V29.4198L21.1927 26.697C20.9843 26.6022 20.8075 26.4494 20.6836 26.2569C20.5596 26.0644 20.4936 25.8402 20.4936 25.6112H20.4983ZM29.5662 41.628V33.6578L35.8946 36.5404V44.5941L29.9146 41.8714C29.784 41.812 29.6675 41.7295 29.5662 41.628ZM38.2809 44.5989V36.5404L44.9696 33.4955V40.7856C44.9696 41.0146 44.9036 41.2387 44.7796 41.4312C44.6556 41.6238 44.4789 41.7766 44.2704 41.8714L38.2809 44.5989ZM27.1751 33.6578V41.6375C27.0759 41.7347 26.9604 41.8139 26.8339 41.8714L20.8443 44.5989V36.5404L27.1751 33.6578ZM18.4581 36.5404V44.5941L12.4804 41.8714C12.272 41.7766 12.0952 41.6238 11.9712 41.4312C11.8473 41.2387 11.7813 41.0146 11.7812 40.7856V33.4979L18.4628 36.5404H18.4581ZM29.5614 29.4245V21.3637L36.2502 18.3188V25.6112C36.2501 25.8402 36.1841 26.0644 36.0602 26.2569C35.9362 26.4494 35.7594 26.6022 35.551 26.697L29.5614 29.4245ZM36.5962 28.5416C36.7513 28.4711 36.9197 28.4345 37.0901 28.4345C37.2605 28.4345 37.429 28.4711 37.5841 28.5416L43.8361 31.386L37.083 34.462L30.3417 31.386L36.5985 28.5368L36.5962 28.5416ZM19.162 28.5416C19.3171 28.4711 19.4856 28.4345 19.656 28.4345C19.8264 28.4345 19.9948 28.4711 20.1499 28.5416L26.402 31.386L19.6512 34.4643L12.9052 31.386L19.162 28.5416Z" fill="#6EF667"/>
</g>
<defs>
<clipPath id="clip0_1497_1158">
<rect width="33.4079" height="33.4079" fill="white" transform="translate(11.6719 12.2188)"/>
</clipPath>
</defs>
</svg>
