<svg width="58" height="58" viewBox="0 0 58 58" fill="none" xmlns="http://www.w3.org/2000/svg">
<circle cx="28.8754" cy="28.9262" r="28.1879" fill="#49D043" fill-opacity="0.09"/>
<path d="M11.4766 19.795C11.4766 18.1142 12.8407 16.75 14.5216 16.75H38.0115C39.6923 16.75 41.0565 18.1142 41.0565 19.795V34.5849C41.0565 35.3925 40.7357 36.167 40.1646 36.7381C39.5936 37.3091 38.8191 37.6299 38.0115 37.6299H14.5216C13.714 37.6299 12.9395 37.3091 12.3684 36.7381C11.7974 36.167 11.4766 35.3925 11.4766 34.5849V19.795ZM16.6965 18.925V20.665C16.6965 21.0111 16.5591 21.343 16.3143 21.5878C16.0696 21.8325 15.7377 21.97 15.3916 21.97H13.6516V24.58H15.3916C15.9057 24.58 16.4148 24.4787 16.8898 24.282C17.3647 24.0852 17.7963 23.7968 18.1599 23.4333C18.5234 23.0698 18.8118 22.6382 19.0085 22.1632C19.2053 21.6882 19.3065 21.1791 19.3065 20.665V18.925H16.6965ZM26.2665 31.54C27.3048 31.54 28.3006 31.1275 29.0348 30.3933C29.769 29.6591 30.1815 28.6633 30.1815 27.625C30.1815 26.5866 29.769 25.5909 29.0348 24.8567C28.3006 24.1225 27.3048 23.71 26.2665 23.71C25.2282 23.71 24.2324 24.1225 23.4982 24.8567C22.764 25.5909 22.3515 26.5866 22.3515 27.625C22.3515 28.6633 22.764 29.6591 23.4982 30.3933C24.2324 31.1275 25.2282 31.54 26.2665 31.54ZM13.6516 32.41H15.3916C15.7377 32.41 16.0696 32.5474 16.3143 32.7922C16.5591 33.0369 16.6965 33.3688 16.6965 33.715V35.4549H19.3065V33.715C19.3065 32.6766 18.8941 31.6808 18.1599 30.9466C17.4257 30.2124 16.4299 29.8 15.3916 29.8H13.6516V32.41ZM35.8365 33.715C35.8365 33.3688 35.974 33.0369 36.2187 32.7922C36.4634 32.5474 36.7954 32.41 37.1415 32.41H38.8815V29.8H37.1415C36.1032 29.8 35.1074 30.2124 34.3732 30.9466C33.639 31.6808 33.2265 32.6766 33.2265 33.715V35.4549H35.8365V33.715ZM35.8365 20.665V18.925H33.2265V20.665C33.2265 21.1791 33.3278 21.6882 33.5245 22.1632C33.7213 22.6382 34.0096 23.0698 34.3732 23.4333C35.1074 24.1675 36.1032 24.58 37.1415 24.58H38.8815V21.97H37.1415C36.7954 21.97 36.4634 21.8325 36.2187 21.5878C35.974 21.343 35.8365 21.0111 35.8365 20.665ZM15.6543 40.2399C16.1126 41.0337 16.7718 41.6928 17.5656 42.151C18.3595 42.6091 19.26 42.8502 20.1765 42.8499H38.0115C39.0969 42.8499 40.1716 42.6361 41.1744 42.2208C42.1771 41.8054 43.0882 41.1966 43.8557 40.4292C44.6232 39.6617 45.232 38.7506 45.6473 37.7478C46.0627 36.7451 46.2765 35.6703 46.2765 34.5849V25.45C46.2767 24.5334 46.0357 23.6329 45.5775 22.8391C45.1194 22.0452 44.4602 21.386 43.6665 20.9277V34.5849C43.6665 36.0847 43.0707 37.5231 42.0102 38.5836C40.9496 39.6441 39.5113 40.2399 38.0115 40.2399H15.6543Z" fill="#6EF667"/>
</svg>
