<svg width="68" height="68" viewBox="0 0 68 68" fill="none" xmlns="http://www.w3.org/2000/svg">
<circle cx="34" cy="34" r="34" fill="#49D043" fill-opacity="0.11"/>
<path d="M48.8333 20.1641C49.7837 20.1641 50.6951 20.5416 51.3671 21.2136C52.0391 21.8856 52.4167 22.797 52.4167 23.7474V41.6641C52.4167 43.6528 50.8221 45.2474 48.8333 45.2474H56V48.8307H13V45.2474H20.1667C19.2163 45.2474 18.3049 44.8699 17.6329 44.1979C16.9609 43.5259 16.5833 42.6144 16.5833 41.6641V23.7474C16.5833 21.7586 18.1779 20.1641 20.1667 20.1641H48.8333ZM48.8333 23.7474H20.1667V41.6641H48.8333V23.7474ZM34.5 34.4974C38.4596 34.4974 41.6667 36.1099 41.6667 38.0807V39.8724H27.3333V38.0807C27.3333 36.1099 30.5404 34.4974 34.5 34.4974ZM34.5 25.5391C35.4504 25.5391 36.3618 25.9166 37.0338 26.5886C37.7058 27.2606 38.0833 28.172 38.0833 29.1224C38.0833 30.0728 37.7058 30.9842 37.0338 31.6562C36.3618 32.3282 35.4504 32.7057 34.5 32.7057C32.5112 32.7057 30.9167 31.1111 30.9167 29.1224C30.9167 27.1336 32.5292 25.5391 34.5 25.5391Z" fill="#6EF667"/>
</svg>
