<svg width="68" height="68" viewBox="0 0 68 68" fill="none" xmlns="http://www.w3.org/2000/svg">
<circle cx="34" cy="34" r="34" fill="#49D043" fill-opacity="0.11"/>
<g clip-path="url(#clip0_1497_1273)">
<path d="M32.7845 39.0104C32.7845 38.733 32.8947 38.467 33.0909 38.2709C33.287 38.0747 33.5531 37.9645 33.8305 37.9645H42.1979V22.2756C42.1979 21.7208 41.9775 21.1888 41.5852 20.7965C41.1929 20.4042 40.6608 20.1838 40.106 20.1838H26.373L19.1875 27.3588V47.3778C19.1875 47.9326 19.4079 48.4647 19.8002 48.857C20.1925 49.2493 20.7246 49.4697 21.2794 49.4697H40.106C40.6608 49.4697 41.1929 49.2493 41.5852 48.857C41.9775 48.4647 42.1979 47.9326 42.1979 47.3778V40.0564H33.8305C33.5531 40.0564 33.287 39.9462 33.0909 39.75C32.8947 39.5539 32.7845 39.2878 32.7845 39.0104ZM27.5549 28.5512H21.2794V28.2165L27.2307 22.2756H27.5549V28.5512Z" fill="#6EF667"/>
<path d="M45.66 33.0992C45.4599 32.9278 45.2025 32.8383 44.9393 32.8484C44.676 32.8586 44.4263 32.9677 44.2401 33.154C44.0538 33.3403 43.9447 33.59 43.9345 33.8532C43.9243 34.1164 44.0139 34.3738 44.1852 34.5739L47.5845 37.9627H42.1875V40.0546H47.6159L44.1852 43.4852C44.0757 43.579 43.9868 43.6943 43.924 43.8241C43.8612 43.9539 43.826 44.0952 43.8204 44.2393C43.8148 44.3833 43.8391 44.5269 43.8917 44.6612C43.9443 44.7954 44.024 44.9173 44.126 45.0192C44.2279 45.1211 44.3498 45.2009 44.484 45.2535C44.6182 45.3061 44.7619 45.3303 44.9059 45.3248C45.05 45.3192 45.1913 45.2839 45.3211 45.2211C45.4508 45.1584 45.5662 45.0694 45.66 44.96L51.6008 39.0086L45.66 33.0992Z" fill="#6EF667"/>
</g>
<defs>
<clipPath id="clip0_1497_1273">
<rect width="37.6533" height="37.6533" fill="white" transform="translate(15 16)"/>
</clipPath>
</defs>
</svg>
